<?xml version="1.0" encoding="UTF-8"?>
<svg id="Layer_1" data-name="Layer 1" xmlns="http://www.w3.org/2000/svg" viewBox="0 0 359.55 40">
  <defs>
    <style>
      .cls-1 {
        stroke-width: 0px;
      }
    </style>
  </defs>
  <path class="cls-1" d="m59.56,15.58c0,8.23-6.52,14.92-16.41,14.92H12.16v8.84H0V.66h43.15c9.89,0,16.41,6.69,16.41,14.92Zm-12.15,0c0-2.38-1.93-4.26-4.26-4.26H12.16v8.51h31c2.32,0,4.26-1.88,4.26-4.26Z"/>
  <path class="cls-1" d="m127.45,20c0,11.99-8.84,20-21.22,20h-22.1c-12.1,0-21.22-8.01-21.22-20S71.75,0,84.13,0h22.1c12.38,0,21.22,8.07,21.22,20Zm-12.38,0c0-4.86-3.59-8.68-8.84-8.68h-22.1c-5.25,0-8.84,3.82-8.84,8.68s3.59,8.67,8.84,8.67h22.1c5.25,0,8.84-3.76,8.84-8.67Z"/>
  <path class="cls-1" d="m131.9.66h12.16v38.68h-12.16V.66Z"/>
  <path class="cls-1" d="m208.27,26.58c0,7.96-5.64,13.2-18.62,13.42h-22.87c-15.47,0-18.01-8.62-18.01-13.81h12.21c.33,1.93,2.65,2.98,6.58,2.98h22.1c4.36,0,6.19-.88,6.19-2.38,0-1.1-.94-2.04-3.76-2.04h-28.24c-9.61,0-14.48-4.42-14.48-11.27S153.74.11,167.38,0h22.49c15.64,0,17.57,9.67,17.57,13.42h-12.21c-.22-1.6-1.71-2.98-5.69-2.98h-22.16c-4.58,0-5.63,1.27-5.63,2.43s.94,2.05,3.43,2.05h29.17c9.17,0,13.92,4.8,13.92,11.66Z"/>
  <path class="cls-1" d="m276.43,20c0,11.99-8.84,20-21.22,20h-22.1c-12.1,0-21.21-8.01-21.21-20S220.74,0,233.11,0h22.1c12.38,0,21.22,8.07,21.22,20Zm-12.38,0c0-4.86-3.59-8.68-8.84-8.68h-22.1c-5.25,0-8.84,3.82-8.84,8.68s3.59,8.67,8.84,8.67h22.1c5.25,0,8.84-3.76,8.84-8.67Z"/>
  <path class="cls-1" d="m341.83.66v38.68h-11.93l-37.08-24.2v24.2h-11.94V.66h11.94l37.08,24.26V.66h11.93Z"/>
  <path class="cls-1" d="m347.39,27.9h12.16v11.44h-12.16v-11.44Z"/>
</svg>