<?xml version="1.0" encoding="UTF-8"?>
<svg id="Layer_2" xmlns="http://www.w3.org/2000/svg" viewBox="0 0 40 25.17">
  <g id="Layer_1-2" data-name="Layer_1">
    <path d="M11.85,0c1.2,0,2.29.11,3.28.32.99.21,1.83.56,2.54,1.04.71.48,1.25,1.12,1.64,1.92s.58,1.79.58,2.96c0,1.27-.29,2.33-.86,3.17-.58.85-1.43,1.54-2.56,2.08,1.55.45,2.71,1.23,3.47,2.34.76,1.12,1.15,2.46,1.15,4.04,0,1.27-.25,2.37-.74,3.3-.49.93-1.16,1.69-1.99,2.27-.83.59-1.79,1.02-2.86,1.31-1.08.28-2.18.42-3.3.42H0V0h11.85ZM11.14,10.19c.99,0,1.8-.23,2.43-.71.63-.47.95-1.23.95-2.29,0-.59-.11-1.07-.32-1.45-.21-.38-.49-.67-.85-.88-.35-.21-.76-.36-1.22-.44-.47-.08-.95-.12-1.43-.12h-5.18v5.89h5.61ZM11.46,20.87c.54,0,1.06-.05,1.55-.16.49-.11.93-.28,1.3-.53.38-.25.68-.58.9-1,.22-.42.33-.96.33-1.62,0-1.29-.36-2.21-1.09-2.77-.73-.55-1.69-.83-2.89-.83h-6.03v6.91h5.92s0,0,0,0ZM28.05,20.34c.75.73,1.83,1.09,3.24,1.09,1.01,0,1.88-.25,2.61-.76.73-.5,1.18-1.04,1.34-1.6h4.41c-.7,2.19-1.79,3.75-3.24,4.69-1.46.94-3.22,1.41-5.29,1.41-1.43,0-2.73-.23-3.88-.69-1.15-.46-2.13-1.11-2.93-1.96-.8-.85-1.42-1.86-1.85-3.03-.44-1.18-.65-2.47-.65-3.88s.22-2.63.67-3.81c.45-1.18,1.08-2.19,1.9-3.05.82-.86,1.8-1.53,2.94-2.03,1.14-.49,2.4-.74,3.79-.74,1.55,0,2.9.3,4.05.9,1.15.6,2.1,1.41,2.84,2.42.74,1.01,1.27,2.16,1.6,3.46.33,1.29.45,2.64.35,4.05h-13.15c.07,1.62.48,2.8,1.23,3.53h0ZM33.71,10.75c-.6-.66-1.51-.99-2.73-.99-.8,0-1.46.14-1.99.41-.53.27-.95.61-1.27,1-.32.4-.54.82-.67,1.27-.13.45-.21.85-.23,1.2h8.14c-.23-1.27-.65-2.23-1.25-2.89ZM25.96,1.28h10.18v2.82h-10.18V1.28Z"/>
  </g>
</svg>