<?xml version="1.0" encoding="UTF-8"?>
<svg id="Layer_2" xmlns="http://www.w3.org/2000/svg" viewBox="0 0 39.92 23.17">
  <g id="Layer_1-2" data-name="Layer_1">
    <g>
      <path d="M9.7,15.17c.12-.43.22-.77.3-1.11.71-2.93,1.43-5.86,2.14-8.79.39-1.58.79-3.16,1.16-4.75C13.39.12,13.6,0,14,0c1.43.02,2.85.02,4.28,0,.4,0,.6.11.7.52.5,2.11,1.02,4.22,1.53,6.32.35,1.45.71,2.89,1.07,4.34.29,1.18.58,2.37.87,3.55.03.11.06.21.18.33.04-.18.09-.35.13-.53.69-2.65,1.37-5.29,2.06-7.94.53-2.04,1.06-4.07,1.58-6.11.09-.34.26-.48.62-.48,1.61.01,3.21,0,4.82,0,.45,0,.52.11.38.54-1.08,3.41-2.16,6.83-3.25,10.24-1.08,3.39-2.16,6.77-3.25,10.16-.17.53-.34,1.05-.5,1.58-.09.29-.25.42-.56.42-1.43,0-2.85,0-4.28,0-.35,0-.47-.2-.55-.48-.36-1.36-.72-2.73-1.09-4.09-.68-2.54-1.36-5.08-2.04-7.62-.14-.52-.27-1.04-.41-1.56-.04-.14-.08-.28-.21-.42-.07.25-.15.5-.22.75-.72,2.7-1.43,5.41-2.15,8.11-.43,1.6-.86,3.2-1.28,4.8-.1.38-.29.52-.68.52-1.35-.02-2.7-.02-4.05,0-.38,0-.58-.14-.69-.51-.9-2.86-1.81-5.73-2.72-8.59C3.19,10.36,2.07,6.87.95,3.37.65,2.44.36,1.51.07.58-.08.1,0,0,.5,0c1.58,0,3.16,0,4.74,0,.33,0,.52.1.6.44.36,1.43.74,2.86,1.12,4.29.5,1.91,1.01,3.82,1.5,5.74.38,1.49.76,2.98,1.13,4.48.01.04.04.09.11.23Z"/>
      <path d="M36.02,23.16c-2.13.15-3.88-1.65-3.89-3.84,0-2.17,1.72-3.9,3.88-3.91,2.21,0,3.89,1.71,3.9,3.95.01,2.02-1.71,3.96-3.89,3.79Z"/>
    </g>
  </g>
</svg>