<?xml version="1.0" encoding="UTF-8"?>
<svg id="Layer_2" xmlns="http://www.w3.org/2000/svg" viewBox="0 0 34.41 40">
  <g id="Layer_1-2" data-name="Layer_1">
    <path d="M34.41,12.64c-1.13.3-2.24.6-3.36.9-.09-.29-.18-.58-.27-.86-.52-1.59-1.24-3.08-2.27-4.41-1.47-1.89-3.37-3.16-5.63-3.92-1.45-.48-2.94-.72-4.45-.79-2.45-.11-4.84.17-7.12,1.12-2.58,1.07-4.46,2.89-5.75,5.35-.84,1.62-1.36,3.35-1.68,5.14-.32,1.8-.45,3.61-.41,5.43.06,2.43.36,4.83,1.14,7.15.56,1.67,1.36,3.21,2.5,4.55,1.38,1.61,3.1,2.7,5.1,3.37,1.4.47,2.84.7,4.31.77,1.58.08,3.14-.01,4.69-.32,2.43-.48,4.49-1.61,6.13-3.46,1.32-1.48,2-3.22,1.92-5.22-.09-2.28-1.14-4.01-3.08-5.21-.01,0-.03-.02-.04-.02,0,0-.02,0-.04,0-.05.29-.1.58-.15.87-.28,1.46-.76,2.85-1.61,4.08-1.19,1.72-2.83,2.76-4.87,3.16-1.7.34-3.38.28-5.03-.28-1.41-.48-2.6-1.26-3.49-2.48-.76-1.04-1.13-2.21-1.17-3.49-.05-1.64.44-3.1,1.53-4.33.91-1.03,2.06-1.7,3.36-2.14,1.13-.39,2.31-.55,3.5-.59,1.45-.05,2.9,0,4.33.23.05,0,.09,0,.17.02-.09-.35-.15-.68-.25-1.01-.26-.87-.66-1.66-1.36-2.27-.63-.55-1.38-.86-2.2-1-1.07-.19-2.13-.17-3.18.15-1.04.31-1.88.91-2.51,1.8-.03.04-.06.08-.1.13-.96-.66-1.91-1.31-2.87-1.97.02-.04.04-.08.06-.11,1.33-1.94,3.18-3.1,5.49-3.5,1.62-.28,3.24-.21,4.82.28,2.11.65,3.63,2,4.59,3.99.55,1.15.85,2.37.99,3.63.03.27.05.54.07.81,0,.11.08.14.16.17,1.08.48,2.08,1.08,2.97,1.85,1.74,1.5,2.83,3.38,3.2,5.65.58,3.55-.37,6.66-2.78,9.31-2.12,2.33-4.75,3.78-7.83,4.4-1.29.26-2.6.39-3.92.42-2.3.05-4.56-.21-6.76-.91-2.19-.7-4.14-1.81-5.8-3.42-1.85-1.79-3.13-3.94-4-6.35-.59-1.62-.96-3.29-1.19-4.99C.11,23.01.02,21.68,0,20.35c-.02-1.48.07-2.96.26-4.43.2-1.63.54-3.22,1.06-4.78.72-2.15,1.76-4.13,3.26-5.85,1.72-1.98,3.82-3.37,6.29-4.23C12.72.41,14.62.1,16.57.02c2.1-.09,4.17.1,6.21.61,2.79.71,5.24,2.03,7.27,4.09,1.64,1.66,2.83,3.62,3.67,5.79.25.65.44,1.31.65,1.97.01.04.02.09.04.16ZM22.75,20.88c-.29-.05-.57-.11-.85-.15-1.12-.18-2.25-.23-3.39-.2-.7.02-1.4.07-2.09.23-.79.18-1.54.47-2.16,1.01-1.08.92-1.32,2.42-.59,3.56.44.69,1.09,1.09,1.85,1.35,1.22.42,2.46.41,3.7.08.98-.26,1.74-.82,2.31-1.66.32-.47.55-.99.73-1.54.28-.87.42-1.76.5-2.68Z"/>
  </g>
</svg>