<?xml version="1.0" encoding="UTF-8"?>
<svg id="Layer_2" xmlns="http://www.w3.org/2000/svg" viewBox="0 0 40 40.01">
  <g id="Layer_1-2" data-name="Layer_1">
    <path d="M19.98,0c11.07,0,20.03,8.96,20.02,20.03-.01,11.04-8.96,20.01-20.06,19.98C8.94,39.98-.02,31.05,0,19.96.02,8.94,8.94.02,19.98,0ZM9.93,33.35c.21.15.34.26.48.36,2.17,1.51,4.56,2.46,7.19,2.85,2.72.4,5.35.12,7.94-.77.84-.29.82-.3.67-1.19-.5-2.94-1.29-5.81-2.25-8.63-.34-1-.74-1.98-1.14-3.02-5.61,1.89-9.87,5.33-12.88,10.41ZM21.53,19.97c-.35-.73-.69-1.4-.98-2.09-.18-.45-.41-.51-.86-.37-3.01.94-6.11,1.51-9.24,1.8-2.21.2-4.44.24-6.66.33-.41.02-.53.14-.52.54.05,2.34.51,4.58,1.48,6.71.7,1.53,1.59,2.94,2.74,4.22,3.4-5.32,8.02-9.06,14.03-11.13ZM18.68,14.41c-.05-.15-.05-.18-.07-.21-1.7-3.1-3.61-6.05-5.67-8.92-.19-.26-.35-.28-.63-.13-2.1,1.09-3.89,2.56-5.36,4.4-1.53,1.91-2.6,4.05-3.19,6.43-.09.38-.01.52.37.49.43-.03.85-.07,1.28-.08,3.12-.08,6.2-.45,9.25-1.06,1.34-.26,2.66-.6,4.02-.91ZM30.97,7.49c-1.06-1.24-4.64-3.58-8.83-4.08-1.95-.23-3.89-.18-5.88.3,2.32,2.9,4.25,5.92,5.99,9.07.18.33.38.25.63.14,2.28-.94,4.41-2.13,6.3-3.71.64-.53,1.2-1.16,1.79-1.74ZM36.63,19.61c.54-2.1-1.93-8.88-3.51-9.84-1.18,1.02-2.25,2.13-3.5,2.97-1.68,1.13-3.5,2.07-5.27,3.06-.32.18-.44.31-.26.66.25.49.45,1,.68,1.5.54,1.17.54,1.13,1.81.95,2.32-.33,4.64-.26,6.95.09,1.04.16,2.07.41,3.1.61ZM29.39,33.8c.16-.09.24-.13.3-.18,3.44-2.52,5.67-5.83,6.62-10,.15-.68.15-.68-.52-.87-2.3-.65-4.66-.91-7.05-.85-.72.02-1.45.14-2.26.22,1.36,3.83,2.34,7.67,2.91,11.67Z"/>
  </g>
</svg>