<?xml version="1.0" encoding="UTF-8"?>
<svg id="Layer_2" xmlns="http://www.w3.org/2000/svg" viewBox="0 0 39.96 40">
  <g id="Layer_1-2" data-name="Layer_1">
    <g>
      <path d="M14.13,13.23c2.46,0,4.85-.04,7.24.04.33.01.77.57.92.97.18.46.1,1.03.15,1.87,1.85-1.95,3.79-3.17,6.27-3.56,5.54-.87,10.71,2.86,11,8.48.31,5.86.17,11.74.25,17.61.01,1.07-.53,1.37-1.49,1.35-1.92-.03-3.85-.04-5.77,0-1.09.03-1.49-.39-1.47-1.51.05-4.32.03-8.65.01-12.98,0-.64,0-1.29-.13-1.91-.47-2.51-1.79-3.75-3.86-3.71-2.19.05-4.31,1.8-4.45,4.05-.2,3.25-.15,6.51-.18,9.76-.02,1.6-.03,3.2,0,4.81.01.96-.28,1.5-1.36,1.48-2.03-.05-4.06-.02-6.09-.01-.84,0-1.25-.29-1.25-1.22.03-8.28.02-16.55.04-24.83,0-.15.07-.3.18-.7Z"/>
      <path d="M.85,13.31h8.37c.04.62.09,1.13.09,1.65,0,7.75-.02,15.5.03,23.24,0,1.32-.37,1.82-1.71,1.76-1.87-.08-3.74-.04-5.61-.02-.88,0-1.42-.25-1.42-1.26.02-8.18.02-16.35.04-24.53,0-.26.12-.51.21-.86Z"/>
      <path d="M4.92,0c2.79-.03,5.01,2.12,5.03,4.88.02,2.73-2.18,4.98-4.92,5.03C2.31,9.95.05,7.74,0,4.98-.05,2.21,2.11.03,4.92,0Z"/>
    </g>
  </g>
</svg>